<?xml version="1.0" encoding="UTF-8"?>
<svg width="227px" height="155px" viewBox="0 0 227 155" version="1.1" xmlns="http://www.w3.org/2000/svg" xmlns:xlink="http://www.w3.org/1999/xlink">
    <!-- Generator: Sketch 61.2 (89653) - https://sketch.com -->
    <title>Group 8</title>
    <desc>Created with Sketch.</desc>
    <defs>
        <linearGradient x1="50%" y1="0%" x2="50%" y2="100%" id="linearGradient-1">
            <stop stop-color="#000000" stop-opacity="0" offset="0%"></stop>
            <stop stop-color="#000000" offset="100%"></stop>
        </linearGradient>
        <filter x="-31.8%" y="-104.3%" width="163.6%" height="308.7%" filterUnits="objectBoundingBox" id="filter-2">
            <feGaussianBlur stdDeviation="16" in="SourceGraphic"></feGaussianBlur>
        </filter>
    </defs>
    <g id="after-QC" stroke="none" stroke-width="1" fill="none" fill-rule="evenodd">
        <g id="slide-01-confirmed" transform="translate(-1180.000000, -201.000000)">
            <g id="Group-8" transform="translate(1218.000000, 201.000000)">
                <rect id="Rectangle" fill="url(#linearGradient-1)" opacity="0.37765067" filter="url(#filter-2)" x="0" y="69" width="151" height="46" rx="2"></rect>
                <g id="mosaferat2-01" transform="translate(15.000000, 0.000000)" fill-rule="nonzero">
                    <g id="Group" transform="translate(0.000000, 0.729051)">
                        <g transform="translate(27.468776, 4.708286)" fill="#001736">
                            <polygon id="Rectangle" transform="translate(50.173223, 5.384365) rotate(170.711934) translate(-50.173223, -5.384365) " points="48.431942 0.371756644 51.9418078 0.362049222 51.9145031 10.3969726 48.4046373 10.4066801"></polygon>
                            <path d="M46.1445571,12.4997397 C46.1445571,10.9049977 47.4134951,9.61401608 48.9810068,9.6292041 L55.0868379,9.6292041 C61.9391031,9.6292041 62.1928907,14.307114 62.1928907,14.307114 L46.1594858,14.307114 L46.1445571,12.4997397 Z" id="Path"></path>
                            <polygon id="Rectangle" transform="translate(12.043800, 5.354571) rotate(9.334224) translate(-12.043800, -5.354571) " points="10.2750867 0.332099975 13.7850761 0.341854225 13.8125125 10.3770422 10.3025231 10.3672879"></polygon>
                            <path d="M16.0781909,12.4845517 C16.0781909,10.8898097 14.8092529,9.59882807 13.2566699,9.59882807 L7.15083884,9.59882807 C0.298573647,9.59882807 0.044786047,14.2767379 0.044786047,14.2767379 L16.0781909,14.2767379 L16.0781909,12.4845517 Z" id="Path"></path>
                        </g>
                        <path d="M37.3664919,5.42212282 C37.5157787,3.85775685 38.2771415,2.39970702 39.4714361,1.41248578 L39.4714361,1.41248578 C40.5164439,0.531580668 41.8301679,0.0607520764 43.1737493,0.0607520764 L54.4449045,0.0607520764 L73.9119063,0.0759400955 C74.5239823,0.0759400955 75.1360583,0.151880191 75.7182769,0.33413642 C78.0322226,1.09353737 79.5698769,3.12873193 79.7938071,5.43731083 L80.0774521,8.45972663 L75.6287048,8.45972663 C74.8971993,8.45972663 74.3149807,7.85220587 74.3149807,7.10799293 L74.3149807,7.10799293 C74.3149807,6.27265188 73.7327621,5.7258832 72.7474691,5.7258832 C71.7771047,5.7258832 54.4299758,5.71069518 54.4299758,5.71069518 C54.4299758,5.71069518 45.3682657,5.71069518 44.3829726,5.71069518 C43.4126083,5.71069518 42.815461,6.25746387 42.815461,7.0776169 L42.815461,7.0776169 C42.815461,7.82182983 42.2183137,8.41416258 41.4868082,8.41416258 L37.0380609,8.41416258 L37.3664919,5.42212282 Z" id="Path" fill="#D3C28F"></path>
                        <path d="M3.86652873,17.3902819 L113.278842,17.4358459 C115.055355,17.4358459 116.488508,18.8938957 116.488508,20.70127 L116.458651,95.3959479 C116.458651,97.2033222 115.025497,98.661372 113.248984,98.661372 L3.83667136,98.615808 C2.06015816,98.615808 0.627004659,97.1577581 0.627004659,95.3503839 L0.656862023,20.655706 C0.671790706,18.8483317 2.10494421,17.3902819 3.86652873,17.3902819 Z" id="Path" fill="#BC454B"></path>
                        <g transform="translate(0.000000, 16.554941)" id="Path">
                            <path d="M115.548001,17.2991537 L100.634248,2.11113465 C99.8878136,1.3517337 100.425246,0.0607520764 101.470254,0.0607520764 L113.875989,0.0607520764 C115.921218,0.0607520764 117.563373,1.7466222 117.563373,3.81219279 L117.563373,16.4334367 C117.563373,17.511786 116.279507,18.0433667 115.548001,17.2991537 Z" fill="#D3C28F"></path>
                            <path d="M115.249428,65.6881826 C115.995862,64.9287816 117.2648,65.4755503 117.2648,66.5387116 L117.2648,79.1599555 C117.2648,81.2407141 115.607716,82.9113962 113.577415,82.9113962 L101.17168,82.9113962 C100.111744,82.9113962 99.5892399,81.6204146 100.335674,80.8610136 L115.249428,65.6881826 Z" fill="#001736"></path>
                            <path d="M3.82174268,0.0151880191 L16.2274777,0.0151880191 C17.2874142,0.0151880191 17.809918,1.30616964 17.0634839,2.0655706 L2.13480158,17.2384017 C1.38836746,17.9978026 0.119429459,17.4510339 0.119429459,16.3878726 L0.119429459,3.76662873 C0.134358141,1.70105814 1.79144188,0.0151880191 3.82174268,0.0151880191 Z" fill="#D3C28F"></path>
                            <path d="M2.11987289,65.6426185 L17.0336266,80.8306376 C17.7800607,81.5900386 17.2426281,82.8810202 16.1976203,82.8810202 L3.79188532,82.8810202 C1.74665583,82.8810202 0.104500776,81.1951501 0.104500776,79.1295795 L0.104500776,66.5083356 C0.104500776,65.4147982 1.38836746,64.8832176 2.11987289,65.6426185 Z" fill="#D3C28F"></path>
                        </g>
                        <line x1="34.2165399" y1="62.8935871" x2="34.2165399" y2="70.031956" id="Path" fill="#001736"></line>
                        <polygon id="Rectangle" fill="#001736" transform="translate(59.650238, 47.775265) rotate(90.753082) translate(-59.650238, -47.775265) " points="53.4798084 32.8929123 65.8274633 32.8901414 65.8206673 62.6576178 53.4730124 62.6603887"></polygon>
                        <polygon id="Rectangle" fill="#001736" transform="translate(59.647646, 47.778639) rotate(-179.246915) translate(-59.647646, -47.778639) " points="46.2258534 43.0977427 73.0673392 43.1038707 73.0694387 52.4595354 46.2279529 52.4534074"></polygon>
                        <polygon id="Rectangle" fill="#001736" transform="translate(82.048595, 58.038365) rotate(-179.975707) translate(-82.048595, -58.038365) " points="79.0103139 17.4331704 85.0862882 17.4332152 85.0868761 98.6435603 79.0109019 98.6435156"></polygon>
                        <rect id="Rectangle" fill="#001736" x="32.0369523" y="17.4054699" width="6.07597372" height="81.2103381"></rect>
                        <g transform="translate(59.565443, 76.699496)" fill="#001736" id="Path">
                            <path d="M0.343359694,5.66513112 C-0.731505435,9.67476816 1.59736901,13.8210974 5.53854115,14.9146347 C9.47971329,16.0081721 13.5552436,13.6388411 14.6301087,9.6292041 C15.7049738,5.61956706 13.3760994,1.47323785 9.43492724,0.379700477 C5.4937551,-0.713836897 1.41822482,1.65549408 0.343359694,5.66513112 Z"></path>
                            <polygon points="2.14973026 6.2878399 2.88123569 6.22708783 2.97080779 4.04001308 4.41888997 4.90573017 5.04589463 4.04001308 6.15061713 6.12077169 6.56862023 2.58196325 7.41955513 3.46286835 9.18113964 1.71624616 9.8081443 4.11595317 10.9875102 3.81219279 9.5543567 7.0776169 11.5548001 5.84738735 11.6593009 6.92573671 13.3313133 6.94092472 12.3161629 8.85461513 12.9133102 9.3102557 9.56928538 10.9657498 9.58421407 12.0592872 7.12098148 11.0416899 6.7626931 10.9505618 6.13568844 14.2767379 5.46389774 14.0944817 6.53876287 10.8898097 6.2551179 10.7986816 3.62766981 10.3886051 4.18003106 9.44694787"></polygon>
                        </g>
                        <g transform="translate(15.973690, 45.260297)" fill="#001736" id="Path">
                            <path d="M7.30012567,5.04242234 C8.16598924,5.69550716 8.91242336,6.2878399 9.46478461,6.77385651 L10.7337226,6.13595971 L12.4206637,7.21430907 L10.5545784,8.748299 L10.0022172,11.11763 L8.31527607,10.0392806 L8.33020475,8.59641881 C7.65841404,8.30784644 6.80747915,7.88258191 5.86697216,7.36618926 L3.67245586,11.7707148 L1.91087134,10.6468014 L2.17958762,9.3861958 L2.14973026,9.37100778 C2.07508685,9.32544372 2.01537212,9.26469165 1.95565739,9.20393957 C1.70186979,8.91536721 1.67201242,8.50529069 1.88101398,8.17115427 C2.00044343,7.97371002 2.19451631,7.83701785 2.41844654,7.79145379 C2.4483039,7.77626577 2.49308995,7.77626577 2.52294732,7.77626577 L2.537876,7.70032568 C2.46323259,7.65476162 2.40351786,7.59400955 2.35873181,7.53325747 C2.10494421,7.24468511 2.07508685,6.83460859 2.2840884,6.50047217 C2.40351786,6.30302792 2.59759073,6.16633575 2.82152096,6.12077169 C2.85137833,6.12077169 2.86630701,6.10558367 2.89616438,6.10558367 L2.98573647,5.68031914 C2.83644965,5.58919103 2.68716282,5.48287489 2.537876,5.39174678 C1.68694111,4.84497809 1.04500776,4.32858544 0.627004659,3.84256883 C-0.164215506,2.91609967 0.0298573647,2.3085789 0.119429459,2.14151069 L0.149286823,2.08075862 L0.194072871,2.03519456 C0.462789153,1.68587012 1.37343878,1.07834936 4.12031633,2.85534759 C4.26960315,2.9464757 4.41888997,3.03760382 4.5681768,3.14391995 L4.91153649,2.87053561 C4.83689308,2.6275273 4.86675045,2.36933098 5.00110859,2.14151069 C5.12053805,1.94406644 5.31461092,1.80737427 5.53854115,1.76181021 C5.76247139,1.71624616 5.98640162,1.7466222 6.18047449,1.86812635 L6.24018922,1.82256229 C6.15061713,1.57955399 6.18047449,1.29098162 6.31483263,1.06316134 C6.43426209,0.865717088 6.62833496,0.729024916 6.8522652,0.683460859 C7.07619543,0.637896802 7.30012567,0.66827284 7.49419854,0.789776993 L7.5240559,0.804965012 L8.52427762,0.0151880191 L10.2858621,1.13910143 L7.30012567,5.04242234 Z"></path>
                            <path d="M9.37521251,1.29098162 L8.5392063,0.759400955 L7.53898459,1.54917795 L7.15083884,1.30616964 C7.03140939,1.23022955 6.88212256,1.26060558 6.80747915,1.38210974 C6.73283574,1.50361389 6.7626931,1.65549408 6.88212256,1.73143418 L7.12098148,1.88331437 L6.19540317,2.61233928 L5.8371148,2.384519 C5.71768534,2.3085789 5.56839852,2.33895494 5.4937551,2.46045909 C5.41911169,2.58196325 5.44896906,2.73384344 5.56839852,2.80978353 L5.77740007,2.9464757 L4.58310548,3.88813289 C4.3143892,3.70587666 4.04567292,3.52362043 3.79188532,3.35655222 C1.20922327,1.70105814 0.656862023,2.39970702 0.656862023,2.39970702 C0.656862023,2.39970702 0.268716282,3.20467203 2.85137833,4.87535413 C3.10516593,5.04242234 3.37388221,5.20949055 3.65752718,5.37655876 L3.32909616,6.88017265 L3.12009461,6.74348048 C3.00066515,6.66754038 2.85137833,6.69791642 2.77673492,6.81942057 C2.7020915,6.94092472 2.73194887,7.09280492 2.85137833,7.16874501 L3.2096667,7.3965653 L2.9558791,8.56604277 L2.71702019,8.41416258 C2.59759073,8.33822248 2.4483039,8.36859852 2.37366049,8.49010267 C2.29901708,8.61160682 2.32887445,8.76348702 2.4483039,8.83942711 L2.83644965,9.08243542 L2.56773336,10.343041 L3.40373958,10.8746217 L5.5833272,6.50047217 C6.83733652,7.19912105 8.07641715,7.83701785 8.92735204,8.17115427 L8.91242336,9.68995618 L9.59914275,10.1304087 L10.0022172,8.39897456 L11.3607273,7.27506114 L10.6740079,6.83460859 L9.34535515,7.50288143 C8.67356444,6.88017265 7.58377063,6.01445556 6.41933341,5.16392649 L9.37521251,1.29098162 Z"></path>
                        </g>
                    </g>
                    <g id="Group" transform="translate(32.710145, 5.195312)">
                        <polygon id="Rectangle" fill="#F9ECCA" transform="translate(50.555883, 5.682542) rotate(170.711934) translate(-50.555883, -5.682542) " points="48.8478873 0.374505552 52.3837229 0.331898305 52.2638787 10.9905789 48.7280431 11.0331861"></polygon>
                        <path d="M46.4904514,13.2628948 C46.4904514,11.5666659 47.7668366,10.1935282 49.3435476,10.2096827 L55.4852125,10.2096827 C62.3776923,10.2096827 62.6329693,15.1852876 62.6329693,15.1852876 L46.5054677,15.1852876 L46.4904514,13.2628948 Z" id="Path" fill="#061D3A"></path>
                        <polygon id="Rectangle" fill="#F9ECCA" transform="translate(12.202613, 5.680262) rotate(9.334224) translate(-12.202613, -5.680262) " points="10.374395 0.329448207 13.9104082 0.372260987 14.0308305 11.0310758 10.4948173 10.988263"></polygon>
                        <path d="M16.2476319,13.2467403 C16.2476319,11.5505113 14.9712468,10.1773736 13.409552,10.1773736 L7.26788711,10.1773736 C0.375407392,10.1773736 0.120130365,15.1529785 0.120130365,15.1529785 L16.2476319,15.1529785 L16.2476319,13.2467403 Z" id="Path" fill="#061D3A"></path>
                    </g>
                    <path d="M41.8812881,6.75406184 C42.0315442,5.2566933 42.7978505,3.86108768 43.9998995,2.91614637 L43.9998995,2.91614637 C45.0516923,2.07296797 46.3739462,1.62230365 47.7262513,1.62230365 L59.0705887,1.62230365 L78.6639873,1.63684121 C79.2800374,1.63684121 79.8960875,1.709529 80.4820864,1.88397971 C82.8110563,2.61085764 84.3586944,4.55889049 84.5840786,6.7685994 L84.8695652,9.66157356 L80.3919327,9.66157356 C79.6556777,9.66157356 79.0696788,9.08007122 79.0696788,8.36773085 L79.0696788,8.36773085 C79.0696788,7.56816512 78.4836799,7.04481301 77.4919895,7.04481301 C76.5153247,7.04481301 59.0555631,7.03027545 59.0555631,7.03027545 C59.0555631,7.03027545 49.9350164,7.03027545 48.9433259,7.03027545 C47.9666611,7.03027545 47.3656366,7.55362756 47.3656366,8.33865573 L47.3656366,8.33865573 C47.3656366,9.0509961 46.7646121,9.61796089 46.0283571,9.61796089 L41.5507246,9.61796089 L41.8812881,6.75406184 Z" id="Path" fill="#FEE8A8"></path>
                    <path d="M9.42653438,20.3806001 L118.791716,20.4256717 C120.567464,20.4256717 122,21.8679627 122,23.6558026 L121.970155,97.5431684 C121.970155,99.3310082 120.537619,100.773299 118.761871,100.773299 L9.39668988,100.728228 C7.62094194,100.728228 6.1884058,99.2859366 6.1884058,97.4980968 L6.2182503,23.610731 C6.2182503,21.8228911 7.65078645,20.3806001 9.42653438,20.3806001 Z" id="Path" fill="#FC5A62"></path>
                    <g id="Group" transform="translate(5.304348, 18.594096)" fill="#FEE8A8">
                        <path d="M114.637197,17.2320926 L99.8314359,2.2084722 C99.0904068,1.45729118 99.6239478,0.180283445 100.661388,0.180283445 L112.977292,0.180283445 C115.007711,0.180283445 116.637975,1.84790531 116.637975,3.89111768 L116.637975,16.3757462 C116.637975,17.4424233 115.378226,17.9832736 114.637197,17.2320926 Z" id="Path"></path>
                        <path d="M114.340785,65.0973472 C115.081814,64.3461661 116.341564,64.8870165 116.341564,65.9386699 L116.341564,78.4232984 C116.341564,80.4815344 114.696479,82.1341327 112.68088,82.1341327 L100.364977,82.1341327 C99.3127156,82.1341327 98.7939952,80.8571249 99.5350243,80.1059439 L114.340785,65.0973472 Z" id="Path"></path>
                        <path d="M3.7347865,0.135212584 L16.0506896,0.135212584 C17.1029509,0.135212584 17.6216712,1.41222032 16.8806421,2.16340134 L2.06006081,17.1719981 C1.31903174,17.9231791 0.0592823254,17.3823288 0.0592823254,16.3306754 L0.0592823254,3.84604682 C0.0741029067,1.80283445 1.70436685,0.135212584 3.7347865,0.135212584 Z" id="Path"></path>
                        <path d="M2.04524023,65.0522763 L16.851001,80.0758967 C17.5920301,80.8270777 17.0584891,82.1040854 16.0210484,82.1040854 L3.70514534,82.1040854 C1.67472569,82.1040854 0.044461744,80.4364636 0.044461744,78.3932512 L0.044461744,65.9086227 C0.044461744,64.826922 1.30421116,64.3010953 2.04524023,65.0522763 Z" id="Path"></path>
                    </g>
                    <line x1="39.7826087" y1="64.1499585" x2="39.7826087" y2="70.402724" id="Path" fill="#363238"></line>
                    <polygon id="Rectangle" fill-opacity="0.176464161" fill="#000000" points="80.7391304 41.5791677 80.5632156 56.1106886 47.7391304 55.6422095 47.9150453 41.1106886"></polygon>
                    <polygon id="Rectangle" fill="#FFFFFF" points="78.5543309 53.430932 50.3913043 53.0678777 50.5181329 43.6051576 78.6811594 43.9682119"></polygon>
                    <polygon id="Rectangle" fill="#FEE8A8" transform="translate(86.603384, 60.130324) rotate(-179.975707) translate(-86.603384, -60.130324) " points="83.5478064 20.3806042 89.6592164 20.3806137 89.6589613 99.880043 83.5475514 99.8800335"></polygon>
                    <rect id="Rectangle" fill="#FEE8A8" x="38.0144928" y="20.3806001" width="5.30434783" height="80.3926991"></rect>
                    <path d="M55.002,50.7145 L55.002,46.567 L55.002,46.567 L56.1185,46.567 C56.2750727,46.567 56.402,46.4400727 56.402,46.2835 C56.402,46.1269273 56.2750727,46 56.1185,46 L53.2835,46 C53.1269273,46 53,46.1269273 53,46.2835 C53,46.4400727 53.1269273,46.567 53.2835,46.567 L54.407,46.567 L54.407,46.567 L54.407,50.7145 C54.407,50.8788047 54.5401953,51.012 54.7045,51.012 C54.8688047,51.012 55.002,50.8788047 55.002,50.7145 Z M57.739,50.718 L57.739,48.968 L57.739,48.968 L58.53,48.968 L59.746532,50.7896786 C59.839297,50.9285883 59.9953012,51.012 60.1623379,51.012 L60.245,51.012 C60.3473016,51.012 60.4302334,50.9290682 60.4302334,50.8267666 C60.4302334,50.789612 60.4190601,50.753316 60.3981648,50.7225938 L59.181,48.933 L59.181,48.933 L59.195,48.912 C59.419,48.8653333 59.6231667,48.7743333 59.8075,48.639 C59.9918333,48.5036667 60.1365,48.3356667 60.2415,48.135 C60.3465,47.9343333 60.399,47.7173333 60.399,47.484 C60.399,47.1993333 60.3278333,46.9438333 60.1855,46.7175 C60.0431667,46.4911667 59.853,46.315 59.615,46.189 C59.377,46.063 59.1203333,46 58.845,46 L57.151,46 L57.151,50.718 C57.151,50.8803717 57.2826283,51.012 57.445,51.012 C57.6073717,51.012 57.739,50.8803717 57.739,50.718 Z M57.739,48.415 L57.739,46.567 L58.852,46.567 C59.0386667,46.567 59.2031667,46.6113333 59.3455,46.7 C59.4878333,46.7886667 59.5986667,46.903 59.678,47.043 C59.7573333,47.183 59.797,47.33 59.797,47.484 C59.797,47.6613333 59.7515,47.8211667 59.6605,47.9635 C59.5695,48.1058333 59.4481667,48.2166667 59.2965,48.296 C59.1448333,48.3753333 58.9826667,48.415 58.81,48.415 L57.739,48.415 Z M61.5607356,50.7062789 L61.953,49.633 L61.953,49.633 L64.116,49.633 L64.5082644,50.7062789 C64.5753667,50.8898782 64.7500225,51.012 64.9455,51.012 C65.0695113,51.012 65.1700424,50.9114689 65.1700424,50.7874576 C65.1700424,50.7602094 65.1650829,50.7331888 65.1554063,50.7077167 L63.4863225,46.3140989 C63.4144909,46.1250129 63.2332704,46 63.031,46 C62.8287763,46 62.6476452,46.1251145 62.5760611,46.3142444 L60.913222,50.7075757 C60.8692665,50.823709 60.9277782,50.9534867 61.0439116,50.9974422 C61.0693425,51.0070675 61.0963085,51.012 61.1235,51.012 C61.3189775,51.012 61.4936333,50.8898782 61.5607356,50.7062789 Z M63.913,49.073 L62.156,49.073 L62.821,47.267 L63.017,46.728 L63.045,46.728 L63.248,47.267 L63.913,49.073 Z M67.9668405,50.7227565 L69.5819431,46.3089646 C69.6255837,46.1897025 69.5642804,46.0576438 69.4450183,46.0140032 C69.4197033,46.0047399 69.3929566,46 69.366,46 C69.1687251,46 68.9927718,46.124078 68.9265345,46.3099006 L67.742,49.633 L67.742,49.633 L67.567,50.13 L67.539,50.13 L67.371,49.633 L66.2381964,46.3113894 C66.1746899,46.1251755 65.9997452,46 65.803,46 C65.6744931,46 65.5703177,46.1041754 65.5703177,46.2326823 C65.5703177,46.2590899 65.574813,46.2853049 65.5836111,46.3102038 L67.1423853,50.7215964 C67.2038822,50.8956349 67.368416,51.012 67.553,51.012 C67.7379817,51.012 67.9032738,50.8964732 67.9668405,50.7227565 Z M73.244,50.7285 C73.244,50.5719273 73.1170727,50.445 72.9605,50.445 L70.934,50.445 L70.934,50.445 L70.934,48.786 L72.74,48.786 C72.8946397,48.786 73.02,48.6606397 73.02,48.506 C73.02,48.3513603 72.8946397,48.226 72.74,48.226 L70.934,48.226 L70.934,48.226 L70.934,46.567 L72.9605,46.567 C73.1170727,46.567 73.244,46.4400727 73.244,46.2835 C73.244,46.1269273 73.1170727,46 72.9605,46 L70.346,46 L70.346,46 L70.346,51.012 L72.9605,51.012 C73.1170727,51.012 73.244,50.8850727 73.244,50.7285 Z M76.989,50.7285 C76.989,50.5719273 76.8620727,50.445 76.7055,50.445 L74.791,50.445 L74.791,50.445 L74.791,46.294 C74.791,46.1316283 74.6593717,46 74.497,46 C74.3346283,46 74.203,46.1316283 74.203,46.294 L74.203,51.012 L74.203,51.012 L76.7055,51.012 C76.8620727,51.012 76.989,50.8850727 76.989,50.7285 Z" id="TRAVEL" fill="#061D3A"></path>
                </g>
            </g>
        </g>
    </g>
</svg>